<?xml version="1.0" encoding="UTF-8" standalone="no"?>
<!-- Created with Inkscape (http://www.inkscape.org/) -->

<svg
   width="95.828308mm"
   height="86.327385mm"
   viewBox="0 0 95.828305 86.327384"
   version="1.1"
   id="svg1"
   xml:space="preserve"
   inkscape:version="1.4 (86a8ad7, 2024-10-11)"
   sodipodi:docname="logo modificacion letra negra y sin blob.svg"
   inkscape:export-filename="logo modificacion letra negra y sin blob.png"
   inkscape:export-xdpi="96"
   inkscape:export-ydpi="96"
   xmlns:inkscape="http://www.inkscape.org/namespaces/inkscape"
   xmlns:sodipodi="http://sodipodi.sourceforge.net/DTD/sodipodi-0.dtd"
   xmlns="http://www.w3.org/2000/svg"
   xmlns:svg="http://www.w3.org/2000/svg"><sodipodi:namedview
     id="namedview1"
     pagecolor="#ffffff"
     bordercolor="#000000"
     borderopacity="0.25"
     inkscape:showpageshadow="2"
     inkscape:pageopacity="0.0"
     inkscape:pagecheckerboard="0"
     inkscape:deskcolor="#d1d1d1"
     inkscape:document-units="mm"
     inkscape:zoom="1"
     inkscape:cx="207.49999"
     inkscape:cy="111.5"
     inkscape:window-width="1920"
     inkscape:window-height="1046"
     inkscape:window-x="-11"
     inkscape:window-y="-11"
     inkscape:window-maximized="1"
     inkscape:current-layer="svg1"
     inkscape:export-bgcolor="#c7f8ff00" /><defs
     id="defs1" /><g
     inkscape:label="Capa 1"
     inkscape:groupmode="layer"
     id="layer1"
     transform="translate(-65.594285,-116.86299)"
     style="fill:#deaa87;fill-opacity:1" /><g
     id="g10"
     transform="matrix(1.5427703,-0.79571897,0.80513093,1.5247355,-219.43158,50.529192)"
     style="fill:#c4e3c4;fill-opacity:1;stroke:#99cd9d;stroke-opacity:1"><path
       style="fill:#c4e3c4;fill-opacity:1;stroke:#99cd9d;stroke-width:0.5;stroke-dasharray:none;stroke-opacity:1"
       d="m 155.70085,67.12254 c -2.71951,0.26659 -6.12053,2.42312 -7.30177,4.87948 -1.75663,3.65286 0.88789,6.45952 4.65593,6.05684 2.90493,-0.31045 5.27726,-4.14647 5.52869,-6.85059 0.17931,-1.92848 -0.51336,-4.31801 -2.88285,-4.08573 z"
       id="path6" /><path
       style="fill:#c4e3c4;fill-opacity:1;stroke:#99cd9d;stroke-width:0.5;stroke-dasharray:none;stroke-opacity:1"
       d="m 135.59251,63.12337 c -2.48359,0.35836 -4.6131,1.60442 -6.87916,2.5999 -1.79619,0.78907 -3.85033,0.92783 -5.55625,1.90455 -3.47285,1.98838 -4.78672,6.33171 -2.30163,9.65545 2.51119,3.35867 6.17127,2.92737 9.44538,4.78884 3.31033,1.88208 5.95881,5.81135 10.31875,5.14917 7.51529,-1.1414 5.26834,-7.82109 4.14473,-12.83801 -1.12297,-5.01408 -2.01182,-12.29301 -9.17182,-11.2599"
       id="path5" /><path
       style="fill:#c4e3c4;fill-opacity:1;stroke:#99cd9d;stroke-width:0.5;stroke-dasharray:none;stroke-opacity:1"
       d="m 125.27376,51.53642 c -3.46331,1.02639 -5.23035,5.49915 -4.70594,8.82394 0.35235,2.23397 2.96972,4.23083 5.23511,3.53124 3.5965,-1.11065 3.88744,-6.0594 3.2046,-9.08749 -0.43804,-1.94249 -1.32466,-3.98166 -3.73377,-3.26769"
       id="path4" /><path
       style="fill:#c4e3c4;fill-opacity:1;stroke:#99cd9d;stroke-width:0.5;stroke-dasharray:none;stroke-opacity:1"
       d="m 150.1446,51.02236 c -3.55721,1.15415 -6.67452,7.37321 -6.6003,10.9255 0.0776,3.71314 3.40389,5.82488 6.86488,4.748 4.4833,-1.39498 5.68593,-7.33127 4.44974,-11.36259 -0.60605,-1.97636 -2.09362,-5.16121 -4.71432,-4.31091"
       id="path3" /><path
       style="fill:#c4e3c4;fill-opacity:1;stroke:#99cd9d;stroke-width:0.5;stroke-dasharray:none;stroke-opacity:1"
       d="m 139.56126,46.47443 c -3.76823,0.79935 -7.04037,3.46205 -7.96404,7.27134 -0.87438,3.60603 1.87741,7.68403 5.84738,6.92306 5.89933,-1.13078 11.6612,-16.21905 2.11666,-14.1944"
       id="path2" /></g><text
     x="8.2705021"
     y="56.964863"
     font-family="Padauk"
     font-size="7.3407px"
     fill="#000000"
     id="text1"
     style="stroke:none;stroke-width:0.2;stroke-linecap:round;stroke-linejoin:round;stroke-dasharray:none;stroke-opacity:1;paint-order:fill markers stroke">DIABÉTICAS CÓRDOBA</text><path
     d="m 16.728353,45.577364 q -0.332294,0 -0.455714,-0.18988 -0.125796,-0.18988 -0.137664,-0.458087 -0.01184,-0.265832 -0.01184,-0.479448 0,-1.48344 0.356031,-2.919411 0.356021,-1.435969 0.806988,-2.812602 0.130542,-0.403496 0.35603,-0.645593 0.225479,-0.244471 0.664578,-0.244471 0.332293,0 0.569641,0.213615 0.237348,0.213616 0.410618,0.526918 0.170891,0.315675 0.265829,0.612364 l 0.747656,2.266697 0.04745,0.04747 q 0.03561,-0.0356 0.0593,-0.07121 0.02377,-0.0356 0.03561,-0.08307 0.05929,-0.166147 0.185138,-0.505558 0.12342,-0.337037 0.272951,-0.723918 0.147157,-0.384508 0.26583,-0.712051 0.118675,-0.32517 0.166148,-0.443846 0.118673,-0.296687 0.268206,-0.569641 0.147156,-0.272953 0.384503,-0.446217 0.237357,-0.170893 0.593378,-0.170893 0.35603,0 0.605246,0.230228 0.249215,0.232604 0.403495,0.569642 0.154277,0.339411 0.237346,0.671703 0.308558,1.139281 0.474704,2.318912 0.166147,1.182006 0.166147,2.356891 v 0.474701 q -0.106805,0.284821 -0.261084,0.356026 -0.154278,0.0712 -0.391635,0.0712 -0.272951,0 -0.420107,-0.14953 -0.149534,-0.147157 -0.225481,-0.37264 -0.07832,-0.225483 -0.102058,-0.467581 -0.02377,-0.244471 -0.04745,-0.434351 -0.08307,-0.86633 -0.166145,-1.739778 -0.08308,-0.871077 -0.284822,-1.761142 l -0.0593,-0.106806 h -0.03561 q -0.08307,0.249217 -0.21362,0.60999 -0.130541,0.363147 -0.265829,0.742908 -0.137664,0.37976 -0.244471,0.676447 -0.106804,0.296689 -0.154277,0.415365 -0.0593,0.178012 -0.182761,0.450966 -0.125797,0.272951 -0.303812,0.553026 -0.178006,0.277698 -0.384503,0.462832 -0.208865,0.18276 -0.434353,0.18276 -0.284822,0 -0.522168,-0.280073 -0.237357,-0.2777 -0.439099,-0.721545 -0.201751,-0.446218 -0.372644,-0.956522 -0.17326,-0.510304 -0.308558,-0.985004 -0.137656,-0.474703 -0.24447,-0.795125 0,-0.05935 -0.09493,-0.154277 -0.0593,0.08308 -0.07598,0.14241 -0.01903,0.05934 -0.01903,0.118674 -0.106814,0.474702 -0.218365,0.942281 -0.113929,0.469955 -0.185129,0.956523 -0.03561,0.213616 -0.06405,0.408243 -0.03086,0.197001 -0.05463,0.315676 0,0.106808 -0.02853,0.332292 -0.03087,0.225482 -0.0593,0.479446 -0.03086,0.256339 -0.0593,0.469954 -0.03086,0.213615 -0.03086,0.296688 -0.02377,0.237351 -0.106814,0.505558 -0.08308,0.265831 -0.242093,0.443844 -0.161401,0.178013 -0.434353,0.178013 z m 10.289143,-0.05935 q -0.178015,0 -0.356031,-0.113929 -0.178005,-0.111554 -0.249215,-0.301434 v -0.367894 q 0,-0.320422 0.106806,-0.628978 0.106814,-0.308556 0.118682,-0.628979 -0.249224,0 -0.505563,-0.01662 -0.253961,-0.01899 -0.424853,-0.156652 -0.17327,-0.135291 -0.17327,-0.491315 0,-0.356026 0.182761,-0.498437 0.185138,-0.14241 0.458089,-0.178012 0.272953,-0.0356 0.534036,-0.05935 0.261085,-0.02374 0.415363,-0.154278 l 0.178015,-0.178013 q 0.09493,-0.154278 0.130542,-0.344159 0.03561,-0.189879 0.14241,-0.344158 0.07123,-0.154277 0.232602,-0.4747 0.159024,-0.320423 0.33704,-0.688316 0.178015,-0.367893 0.332293,-0.664582 0.154279,-0.296688 0.213612,-0.403495 0.118673,-0.201748 0.301433,-0.49369 0.185138,-0.289567 0.427232,-0.51505 0.24447,-0.225483 0.505554,-0.225483 0.391634,0 0.636105,0.230231 0.242092,0.232603 0.396372,0.557773 0.154278,0.327543 0.284819,0.612363 0.569642,1.269826 1.027732,2.646459 0.455713,1.376631 0.728664,2.753264 v 0.178013 q 0,0.225483 -0.1614,0.469955 -0.159024,0.242096 -0.384504,0.242096 -0.332293,0 -0.510308,-0.178012 -0.178006,-0.178013 -0.261084,-0.450966 -0.08308,-0.272953 -0.123419,-0.569641 -0.0427,-0.296689 -0.113929,-0.541159 -0.07123,-0.242097 -0.237357,-0.360773 H 30.16239 q -0.178014,0 -0.379767,-0.0048 -0.201742,-0.007 -0.403494,-0.007 -0.249216,0 -0.493685,0.02374 -0.242102,0.02374 -0.455714,0.106809 -0.272951,0.09494 -0.391626,0.351277 -0.118673,0.253965 -0.178015,0.567268 -0.05939,0.315676 -0.130541,0.612366 -0.07123,0.296686 -0.225489,0.491313 -0.154269,0.197001 -0.486563,0.197001 m 1.803861,-3.667064 h 0.296688 q 0.403494,0 0.752402,-0.007 0.351275,-0.0047 0.932784,-0.04034 v -0.1068 q 0,-0.130543 -0.02853,-0.256339 -0.03086,-0.123422 -0.09019,-0.253965 -0.08308,-0.261085 -0.225481,-0.621858 -0.142409,-0.363146 -0.272952,-0.678822 -0.130542,-0.313303 -0.189883,-0.431978 -0.01184,-0.01187 -0.07123,-0.01187 h -0.03561 q -0.08307,0.118676 -0.137664,0.253966 -0.05221,0.137663 -0.147155,0.256338 -0.04745,0.118676 -0.159025,0.348905 -0.113928,0.232604 -0.244469,0.50081 -0.130543,0.265832 -0.242102,0.50793 -0.113929,0.244471 -0.173262,0.386881 v 0.05935 q 0,0.09494 0.03561,0.09494 z m 8.176725,3.78574 q -0.545903,0 -0.961267,-0.137663 -0.415371,-0.135286 -0.766646,-0.408238 -0.348907,-0.272953 -0.740533,-0.688317 -0.178016,-0.320423 -0.268208,-0.574388 -0.08781,-0.256338 -0.08781,-0.612364 0,-0.28482 0.130541,-0.498436 0.130542,-0.213615 0.474705,-0.213615 0.249215,0 0.462835,0.296687 0.05939,0.213616 0.213611,0.498436 0.154278,0.284822 0.467581,0.545907 0.315679,0.261086 0.837848,0.415363 0.14241,0.03561 0.320425,0.03561 0.308557,0 0.633728,-0.118674 0.327539,-0.118676 0.553018,-0.344159 0.225488,-0.225482 0.225488,-0.557773 0,-0.284821 -0.185138,-0.486568 -0.18275,-0.201749 -0.436721,-0.351278 -0.256339,-0.147158 -0.46995,-0.253966 -0.415362,-0.201747 -0.842593,-0.415362 -0.42723,-0.213616 -0.783261,-0.505558 -0.35602,-0.289567 -0.574386,-0.693062 -0.220733,-0.403496 -0.220733,-0.973137 0,-0.652714 0.332292,-1.098933 0.332285,-0.443845 0.859209,-0.676449 0.52929,-0.23023 1.1108,-0.23023 0.201741,0 0.517421,0.0356 0.313302,0.0356 0.669324,0.118676 0.35603,0.08308 0.676455,0.232603 0.320416,0.147158 0.522168,0.372641 0.201752,0.225482 0.201752,0.545906 0,0.261085 -0.197007,0.455712 -0.194628,0.197001 -0.455712,0.197001 -0.284821,0 -0.486563,-0.106807 -0.201752,-0.106807 -0.384512,-0.23735 -0.185129,-0.130543 -0.422486,-0.237352 -0.237346,-0.106807 -0.581509,-0.106807 h -0.344153 q -0.296688,0.118676 -0.49844,0.301435 -0.201744,0.185134 -0.201744,0.375014 0,0.356025 0.25634,0.605243 0.253961,0.249219 0.664578,0.455714 0.40824,0.208868 0.86633,0.422483 0.455712,0.213615 0.863953,0.505558 0.410616,0.289566 0.664587,0.709677 0.256338,0.422483 0.256338,1.039595 0,0.581509 -0.249225,1.020606 -0.249215,0.439099 -0.664578,0.735787 -0.415363,0.296688 -0.925663,0.450966 -0.510308,0.154277 -1.032476,0.154277 z m 7.630814,0.296688 q -0.996872,0 -1.780125,-0.450965 -0.783261,-0.450966 -1.234228,-1.250838 -0.450958,-0.802244 -0.450958,-1.822852 0,-0.617109 0.189875,-1.298307 0.189883,-0.683568 0.541158,-1.324415 0.348908,-0.640846 0.842593,-1.170136 0.491318,-0.526918 1.108433,-0.835474 0.617104,-0.308556 1.317288,-0.308556 0.534044,0 1.063336,0.213615 0.526912,0.213616 0.878198,0.633725 0.348898,0.422489 0.348898,1.051469 v 0.356025 q -0.08308,0.201748 -0.225479,0.249218 -0.14241,0.04747 -0.320425,0.04747 -0.249216,0 -0.386881,-0.130543 -0.135287,-0.130542 -0.230225,-0.320423 -0.09494,-0.18988 -0.201751,-0.37976 -0.106805,-0.189881 -0.289566,-0.320424 -0.185138,-0.130543 -0.517423,-0.130543 -0.64085,0 -1.144037,0.313303 -0.505553,0.315676 -0.861574,0.825978 -0.356031,0.510304 -0.545904,1.098933 -0.189884,0.586256 -0.189884,1.132163 0,0.415362 0.130541,0.849714 0.130543,0.431979 0.372645,0.806991 0.24447,0.37264 0.600492,0.602871 0.356028,0.232603 0.806987,0.232603 0.545915,0 1.091819,-0.201748 0.545904,-0.201748 0.949398,-0.56964 0.189884,-0.178014 0.403495,-0.34416 0.213619,-0.166144 0.486571,-0.166144 0.261084,0 0.458081,0.173264 0.194629,0.170893 0.194629,0.491317 0,0.130543 -0.07123,0.261085 -0.07123,0.130543 -0.166147,0.249219 -0.08308,0.106807 -0.189874,0.194627 -0.106806,0.09019 -0.21362,0.185133 -0.593377,0.510303 -1.281693,0.783257 -0.688315,0.272952 -1.483435,0.272952 z m 7.868168,-0.296688 q -0.747656,0 -1.352902,-0.320423 -0.605236,-0.320419 -1.037213,-0.854457 -0.434353,-0.534038 -0.664587,-1.203367 -0.232602,-0.671702 -0.232602,-1.383753 0,-1.542777 0.728666,-2.54677 0.731042,-1.00162 2.095803,-1.559392 0.344163,-0.14241 0.790379,-0.280074 0.443845,-0.13529 0.835473,-0.13529 0.356026,0 0.688317,0.09969 0.332291,0.102062 0.557773,0.375014 0.08307,0.130543 0.118675,0.265833 0.03561,0.137663 0.09494,0.268206 h 0.01187 q 0.02374,0.0356 0.102061,0.147157 0.07595,0.113929 0.159025,0.225483 0.08307,0.113929 0.106808,0.161397 0.450965,0.605245 0.605242,1.23897 0.15428,0.6361 0.15428,1.383754 0,0.795123 -0.272955,1.538031 -0.272952,0.740533 -0.771389,1.322041 -0.498435,0.581509 -1.186752,0.92092 -0.688315,0.337038 -1.530909,0.337038 m 0.118675,-1.329163 q 0.569641,0 0.992125,-0.268206 0.420109,-0.265832 0.700183,-0.712051 0.2777,-0.443846 0.420111,-0.958896 0.142409,-0.517423 0.142409,-1.01586 0,-0.261085 -0.08308,-0.688316 -0.08307,-0.427231 -0.261086,-0.854462 -0.178012,-0.42723 -0.462833,-0.719172 -0.284821,-0.289567 -0.688316,-0.289567 -0.62898,0 -1.144031,0.253965 -0.517423,0.256338 -0.885312,0.695437 -0.367898,0.439098 -0.562527,0.985004 -0.196997,0.545906 -0.196997,1.139282 0,0.605244 0.220733,1.163018 0.218366,0.557773 0.669334,0.913798 0.450957,0.356026 1.139279,0.356026 z m 7.749491,1.091812 q -0.344158,0 -0.498436,-0.315675 -0.154278,-0.313303 -0.154278,-0.633727 0.261086,-1.317295 0.332292,-2.594239 0.0712,-1.274573 0.08308,-2.710543 -0.462833,0.01188 -0.771389,0.03561 -0.308555,0.02374 -0.617111,0.02374 h -0.759518 q -0.284821,-0.05935 -0.443847,-0.213615 -0.161398,-0.154278 -0.161398,-0.450966 0,-0.403495 0.232605,-0.541159 0.230229,-0.13529 0.550651,-0.13529 0.0712,0 0.142411,0 0.0712,0 0.14241,0.01187 0.225483,-0.02374 0.688317,-0.06645 0.462833,-0.04035 0.996871,-0.08308 0.534039,-0.04035 0.985005,-0.07596 0.450966,-0.0356 0.664582,-0.05935 h 0.4747 q 0.261084,0 0.636099,0.03561 0.37264,0.03561 0.740533,0.14953 0.367893,0.111556 0.612365,0.337038 0.242098,0.225483 0.242098,0.605244 0,0.225482 -0.166146,0.443845 -0.166145,0.220737 -0.42723,0.220737 -0.142411,0 -0.296689,-0.102062 -0.154278,-0.09969 -0.296688,-0.135289 -0.308555,-0.09494 -0.640845,-0.106807 -0.332292,-0.01188 -0.640846,-0.01188 h -0.462835 l -0.04747,0.03561 q 0,0.154277 -0.01188,0.498436 -0.01187,0.344159 -0.02374,0.776136 -0.01187,0.434351 -0.01661,0.861583 -0.007,0.42723 -0.007,0.735785 0,0.510304 -0.06409,1.027728 -0.06645,0.515051 -0.102062,0.776136 -0.02374,0.189881 -0.09494,0.455712 -0.07121,0.268207 -0.154279,0.505557 -0.08307,0.237349 -0.178012,0.379759 -0.08308,0.142412 -0.201748,0.232604 -0.118675,0.08782 -0.284821,0.08782 z m 6.479667,0.118676 q -0.178012,0 -0.356026,-0.113929 -0.178012,-0.111555 -0.249217,-0.301434 v -0.367895 q 0,-0.320422 0.106807,-0.628978 0.106808,-0.308555 0.118676,-0.628978 -0.24922,0 -0.503184,-0.01662 -0.256338,-0.01899 -0.42723,-0.156652 -0.173266,-0.135289 -0.173266,-0.491315 0,-0.356026 0.185133,-0.498436 0.182761,-0.14241 0.455713,-0.178013 0.272953,-0.03561 0.534038,-0.05935 0.261086,-0.02374 0.415364,-0.154277 l 0.178012,-0.178014 q 0.09494,-0.154276 0.130543,-0.344157 0.0356,-0.18988 0.142411,-0.344159 0.0712,-0.154278 0.232603,-0.474701 0.159026,-0.320423 0.337038,-0.688316 0.178012,-0.367892 0.332291,-0.664581 0.154277,-0.296687 0.213615,-0.403496 0.118675,-0.201748 0.303807,-0.493689 0.182761,-0.289567 0.427231,-0.51505 0.242099,-0.225482 0.503184,-0.225482 0.391629,0 0.636099,0.230229 0.242097,0.232603 0.396375,0.557773 0.154278,0.327543 0.284821,0.612364 0.569641,1.269825 1.027726,2.646458 0.455714,1.376633 0.728666,2.753264 v 0.178014 q 0,0.225483 -0.159024,0.469954 -0.161399,0.242098 -0.386881,0.242098 -0.332291,0 -0.510303,-0.178013 -0.178013,-0.178014 -0.261086,-0.450966 -0.08307,-0.272954 -0.123422,-0.569641 -0.04272,-0.296689 -0.113929,-0.541159 -0.0712,-0.242098 -0.237349,-0.360774 H 69.98979 q -0.178012,0 -0.37976,-0.0048 -0.201748,-0.007 -0.403497,-0.007 -0.249216,0 -0.491314,0.02374 -0.244472,0.02374 -0.458087,0.106809 -0.272952,0.09494 -0.391627,0.351278 -0.118676,0.253965 -0.178014,0.567268 -0.05935,0.315675 -0.130543,0.612365 -0.0712,0.296687 -0.225482,0.491314 -0.154279,0.197 -0.486569,0.197 m 1.803861,-3.667208 h 0.296688 q 0.403494,0 0.754774,-0.007 0.348905,-0.0048 0.930413,-0.04035 v -0.106803 q 0,-0.130543 -0.02848,-0.256339 -0.03086,-0.123423 -0.09019,-0.253965 -0.08307,-0.261085 -0.225483,-0.621859 -0.14241,-0.363145 -0.272953,-0.678822 -0.130543,-0.313302 -0.189881,-0.431978 -0.01187,-0.01187 -0.0712,-0.01187 h -0.03561 q -0.08308,0.118675 -0.135292,0.253965 -0.05458,0.137664 -0.14953,0.256338 -0.04747,0.118675 -0.159025,0.348905 -0.113928,0.232603 -0.244471,0.500811 -0.130543,0.265831 -0.242097,0.50793 -0.113929,0.24447 -0.173266,0.386881 v 0.05935 q 0,0.09494 0.03561,0.09494 z m 8.176722,3.785741 q -0.545906,0 -0.96127,-0.137665 -0.415362,-0.13529 -0.764268,-0.408242 -0.351278,-0.272953 -0.742907,-0.688317 -0.178012,-0.320423 -0.265832,-0.574387 -0.09019,-0.256338 -0.09019,-0.612365 0,-0.28482 0.130543,-0.498435 0.130543,-0.213616 0.474702,-0.213616 0.249217,0 0.462833,0.296688 0.05934,0.213615 0.213615,0.498436 0.154277,0.284821 0.469954,0.545905 0.313302,0.261086 0.835473,0.415363 0.14241,0.03561 0.320424,0.03561 0.308555,0 0.636099,-0.118675 0.32517,-0.118676 0.550652,-0.344158 0.225483,-0.225483 0.225483,-0.557774 0,-0.28482 -0.18276,-0.486568 -0.185134,-0.201748 -0.439099,-0.351277 -0.256338,-0.147158 -0.469953,-0.253966 -0.415364,-0.201748 -0.842595,-0.415363 -0.427231,-0.213615 -0.783256,-0.505557 -0.356026,-0.289566 -0.574387,-0.693063 -0.220736,-0.403495 -0.220736,-0.973137 0,-0.652714 0.33229,-1.098932 0.33229,-0.443845 0.861582,-0.676449 0.526918,-0.23023 1.108426,-0.23023 0.201748,0 0.517425,0.03561 0.313302,0.0356 0.669328,0.118676 0.356025,0.08308 0.676449,0.232602 0.320422,0.147159 0.52217,0.372641 0.201749,0.225482 0.201749,0.545906 0,0.261085 -0.194628,0.455712 -0.197001,0.197002 -0.458086,0.197002 -0.28482,0 -0.486568,-0.106807 -0.201749,-0.106808 -0.384508,-0.237352 -0.185133,-0.130542 -0.422485,-0.23735 -0.23735,-0.106807 -0.581508,-0.106807 h -0.344159 q -0.296687,0.118675 -0.498434,0.301435 -0.201748,0.185133 -0.201748,0.375013 0,0.356026 0.256338,0.605244 0.253965,0.249217 0.664581,0.455714 0.408242,0.208867 0.866329,0.422482 0.455713,0.213616 0.866329,0.505558 0.408243,0.289567 0.664581,0.709677 0.253966,0.422483 0.253966,1.039595 0,0.581508 -0.249219,1.020606 -0.249218,0.4391 -0.664581,0.735787 -0.415363,0.296689 -0.925666,0.450966 -0.510304,0.154278 -1.032476,0.154278 z"
     id="path1"
     style="fill:#000000;stroke:none;stroke-width:0.3;stroke-linecap:round;stroke-linejoin:round;stroke-dasharray:none;stroke-opacity:1;paint-order:markers fill stroke" /></svg>
