<?xml version="1.0" encoding="UTF-8" standalone="no"?>
<!-- Created with Inkscape (http://www.inkscape.org/) -->

<svg
   width="132.29167mm"
   height="132.29167mm"
   viewBox="0 0 132.29167 132.29167"
   version="1.1"
   id="svg1"
   xml:space="preserve"
   inkscape:export-filename="logo azucarados.svg"
   inkscape:export-xdpi="96"
   inkscape:export-ydpi="96"
   xmlns:inkscape="http://www.inkscape.org/namespaces/inkscape"
   xmlns:sodipodi="http://sodipodi.sourceforge.net/DTD/sodipodi-0.dtd"
   xmlns="http://www.w3.org/2000/svg"
   xmlns:svg="http://www.w3.org/2000/svg"><sodipodi:namedview
     id="namedview1"
     pagecolor="#ffffff"
     bordercolor="#000000"
     borderopacity="0.25"
     inkscape:showpageshadow="2"
     inkscape:pageopacity="0.0"
     inkscape:pagecheckerboard="0"
     inkscape:deskcolor="#d1d1d1"
     inkscape:document-units="mm"><inkscape:page
       x="0"
       y="0"
       width="132.29167"
       height="132.29167"
       id="page2"
       margin="0"
       bleed="0" /></sodipodi:namedview><defs
     id="defs1" /><g
     inkscape:label="Capa 1"
     inkscape:groupmode="layer"
     id="layer1"
     transform="translate(-27.932186,-35.341663)"><path
       style="fill:#00ffff;stroke:#935323;stroke-width:0.5;stroke-dasharray:none;stroke-opacity:1"
       d="m 137.24333,117.52245 c -2.71951,0.26659 -6.12053,2.42312 -7.30177,4.87948 -1.75663,3.65286 0.88789,6.45952 4.65593,6.05684 2.90493,-0.31045 5.27726,-4.14647 5.52869,-6.85059 0.17931,-1.92848 -0.51336,-4.31801 -2.88285,-4.08573 z"
       id="path6" /><path
       style="fill:#00ffff;stroke:#935323;stroke-width:0.5;stroke-dasharray:none;stroke-opacity:1"
       d="m 117.13499,113.52328 c -2.48359,0.35836 -4.6131,1.60442 -6.87916,2.5999 -1.79619,0.78907 -3.85033,0.92783 -5.55625,1.90455 -3.47285,1.98838 -4.786721,6.33171 -2.30163,9.65545 2.51119,3.35867 6.17127,2.92737 9.44538,4.78884 3.31033,1.88208 5.95881,5.81135 10.31875,5.14917 7.51529,-1.1414 5.26834,-7.82109 4.14473,-12.83801 -1.12297,-5.01408 -2.01182,-12.29301 -9.17182,-11.2599"
       id="path5" /><path
       style="fill:#00ffff;stroke:#935323;stroke-width:0.5;stroke-dasharray:none;stroke-opacity:1"
       d="m 106.81624,101.93633 c -3.46331,1.02639 -5.23035,5.49915 -4.70594,8.82394 0.35235,2.23397 2.96972,4.23083 5.23511,3.53124 3.5965,-1.11065 3.88744,-6.0594 3.2046,-9.08749 -0.43804,-1.94249 -1.32466,-3.98166 -3.73377,-3.26769"
       id="path4" /><path
       style="fill:#00ffff;stroke:#935323;stroke-width:0.5;stroke-dasharray:none;stroke-opacity:1"
       d="m 131.68708,101.42227 c -3.55721,1.15415 -6.67452,7.37321 -6.6003,10.9255 0.0776,3.71314 3.40389,5.82488 6.86488,4.748 4.4833,-1.39498 5.68593,-7.33127 4.44974,-11.36259 -0.60605,-1.97636 -2.09362,-5.16121 -4.71432,-4.31091"
       id="path3" /><path
       style="fill:#00ffff;stroke:#935323;stroke-width:0.5;stroke-dasharray:none;stroke-opacity:1"
       d="m 121.10374,96.874345 c -3.76823,0.799349 -7.04037,3.462045 -7.96404,7.271335 -0.87438,3.60603 1.87741,7.68403 5.84738,6.92306 5.89933,-1.13078 11.6612,-16.219053 2.11666,-14.194395"
       id="path2" /><path
       style="fill:#935323;stroke:none"
       d="m 109.46208,137.2186 c -1.25451,-0.76643 -4.92633,-2.2704 -6.35,-1.86597 -3.0587,0.86891 -6.178541,5.57552 -9.525001,5.29514 -1.77618,-0.14881 -3.80595,-2.10411 -5.29167,-3.00575 C 83.28974,134.60423 78.547228,130.95611 74.00791,127.26733 63.850438,119.01306 52.135617,109.06673 47.397481,96.472771 42.036159,82.222372 50.472173,64.498623 66.07041,61.887889 c 6.893684,-1.153822 13.970183,0.646852 19.579167,4.813539 1.977042,1.468668 3.727662,3.215001 5.229402,5.165092 0.89875,1.167072 1.80779,2.684348 3.50165,2.564378 1.72431,-0.122126 2.52804,-1.935597 3.51919,-3.093545 1.66771,-1.948347 3.641871,-3.704716 5.741421,-5.175298 8.01981,-5.617261 18.70414,-5.61303 26.9875,-0.681467 8.46749,5.041174 12.55009,15.370259 11.59655,24.906766 -0.31769,3.17722 -2.26261,6.211701 -2.50334,9.26042 -0.12371,1.566876 1.46179,4.741546 2.28388,6.085406 8.0648,-12.226734 7.24092,-29.375736 -2.97575,-40.167867 C 127.61189,53.503993 104.38355,53.433156 94.380829,67.633186 89.207529,62.459907 83.492292,58.245153 76.124577,56.907758 59.494553,53.889055 43.296671,65.220454 41.011346,82.18527 c -3.090745,22.94374 18.106589,40.63829 34.584064,53.01548 4.093868,3.07513 8.310693,5.99325 12.699999,8.63243 1.51984,0.91385 3.46657,2.57343 5.29167,2.71403 1.58432,0.12203 3.45271,-1.39334 4.7625,-2.14525 3.827181,-2.19709 7.467641,-4.70396 11.112501,-7.18336"
       id="path1" /></g></svg>
